# xmcd
#
# Track frame offsets: 
#        150
#        16610
#        33590
#        49467
#        68382
#        82987
#        99472
#        114690
#        132927
#        147405
#        161262
#        172562
#        186337
#        204287
#        220750
#        236707
#
# Disc length: 3329 seconds
#
# Revision: 4
# Processed by: cddbd v1.5.2PL0 Copyright (c) Steve Scherf et al.
# Submitted via: ExactAudioCopy v0.95a3
#
DISCID=ce0cff10
DTITLE=Today's Country Gold - Today's Country Gold 92
DYEAR=1992
DGENRE=Country
TTITLE0=Garth Brooks - If Tomorrow Never Comes
TTITLE1=Reba McEntire - Rumour Has It
TTITLE2=Billy Dean - Only Here For A Little While
TTITLE3=Carlene Carter - The Sweetest Thing
TTITLE4=Mark Collie - Calloused Hands
TTITLE5=Trisha Yearwood - Like We Never Had A Broken Heart
TTITLE6=Lee Greenwood - We've Got It Made
TTITLE7=Lionel Cartwright - Leap Of Faith
TTITLE8=Marty Stuart - Tempted
TTITLE9=The Bobby Lalonde Band - Somebody Painted My Hometown
TTITLE10=Highway 101 - Bing Bang Boom
TTITLE11=Mark Chestnut - Brother Jukebox
TTITLE12=Pirates Of The Mississippi - Feed Jake
TTITLE13=Johnny Lee - You Can't Fly Like An Eagle
TTITLE14=McBride and The Ride - Same Old Star
TTITLE15=Vince Gill - Liza Jane
EXTD=YEAR: 1992
EXTT0=Garth Brooks\n
EXTT1=Reba McEntire\n
EXTT2=Billy Dean\n
EXTT3=Carlene Carter\n
EXTT4=Mark Collie\n
EXTT5=Trisha Yearwood\n
EXTT6=Lee Greenwood\n
EXTT7=Lionel Cartwright\n
EXTT8=Marty Stuart\n
EXTT9=The Bobby Lalonde Band\n
EXTT10=Highway 101\n
EXTT11=Mark Chestnutt\n
EXTT12=Pirates Of The Mississippi\n
EXTT13=Johnny Lee\n
EXTT14=McBride And The Ride\n
EXTT15=Vince Gill\n
PLAYORDER=
